<svg xmlns="http://www.w3.org/2000/svg" width="23" height="19" viewBox="0 0 23 19">
  <g id="Group_34" data-name="Group 34" transform="translate(-1005 -1448)">
    <g id="Rectangle_25" data-name="Rectangle 25" transform="translate(1009 1457)" stroke="#a6a6a6" stroke-width="1">
      <rect width="15" height="10" rx="1" stroke="none"/>
      <rect x="0.5" y="0.5" width="14" height="9" rx="0.5" fill="none"/>
    </g>
    <g id="Polygon_1" data-name="Polygon 1" transform="translate(1005 1448)">
      <path d="M 20.32603073120117 9.499999046325684 L 2.673979997634888 9.499999046325684 C 2.352149963378906 9.499999046325684 2.234149932861328 9.251348495483398 2.205650091171265 9.175138473510742 C 2.177150011062622 9.098928451538086 2.103039979934692 8.833868980407715 2.345890045166016 8.622698783874512 L 11.17191028594971 0.9478888511657715 C 11.26290035247803 0.8687688708305359 11.37942028045654 0.8251988291740417 11.5 0.8251988291740417 C 11.62057971954346 0.8251988291740417 11.73709964752197 0.8687688708305359 11.82808971405029 0.9478888511657715 L 20.65410995483398 8.622698783874512 C 20.89695930480957 8.833868980407715 20.82284927368164 9.098928451538086 20.79434967041016 9.175138473510742 C 20.76585006713867 9.251348495483398 20.64785003662109 9.499999046325684 20.32603073120117 9.499999046325684 Z" stroke="none"/>
      <path d="M 11.5 1.325199127197266 L 2.673980712890625 8.999988555908203 C 2.673976898193359 8.999990463256836 2.673974990844727 8.999992370605469 2.673973083496094 8.999995231628418 C 2.673973083496094 8.999996185302734 2.673974990844727 8.999998092651367 2.673969268798828 8.999999046325684 L 20.32601928710938 8.999999046325684 L 11.5006103515625 1.325248718261719 C 11.50055027008057 1.325239181518555 11.50032043457031 1.325199127197266 11.5 1.325199127197266 M 11.5 0.3251962661743164 C 11.73402214050293 0.3251962661743164 11.96804523468018 0.4069938659667969 12.1561803817749 0.5705890655517578 L 20.98220062255859 8.245388984680176 C 21.68013000488281 8.852289199829102 21.25090980529785 9.999999046325684 20.32601928710938 9.999999046325684 L 2.673969268798828 9.999999046325684 C 1.749090194702148 9.999999046325684 1.319869995117188 8.852289199829102 2.017799377441406 8.245388984680176 L 10.8438196182251 0.5705890655517578 C 11.03195476531982 0.4069938659667969 11.26597785949707 0.3251962661743164 11.5 0.3251962661743164 Z" stroke="none" fill="#a6a6a6"/>
    </g>
  </g>
</svg>
