<svg xmlns="http://www.w3.org/2000/svg" width="13" height="19" viewBox="0 0 13 19">
  <g id="Union_1" data-name="Union 1" fill="none">
    <path d="M.65,19A.65.65,0,0,1,0,18.35V13.5A6.5,6.5,0,0,1,3.416,7.777a4.5,4.5,0,1,1,6.168,0A6.5,6.5,0,0,1,13,13.5v4.85a.65.65,0,0,1-.65.65Z" stroke="none"/>
    <path d="M 11.99960041046143 17.99990081787109 L 11.99960041046143 13.5 C 11.99960041046143 11.47553062438965 10.89188003540039 9.619729995727539 9.108719825744629 8.656810760498047 L 7.889690399169922 7.998530387878418 L 8.898369789123535 7.048830509185791 C 9.608640670776367 6.380110263824463 9.999799728393555 5.474910259246826 9.999799728393555 4.500000476837158 C 9.999799728393555 2.570090293884277 8.429710388183594 1.000000357627869 6.499800205230713 1.000000357627869 C 4.569890022277832 1.000000357627869 2.999800205230713 2.570090293884277 2.999800205230713 4.500000476837158 C 2.999800205230713 5.474780559539795 3.39102029800415 6.379920482635498 4.101390361785889 7.048670291900635 L 5.110300064086914 7.998460292816162 L 3.891010284423828 8.656740188598633 C 2.107770204544067 9.619480133056641 1.000000238418579 11.47531032562256 1.000000238418579 13.5 L 1.000000238418579 17.99990081787109 L 11.99960041046143 17.99990081787109 M 12.34980010986328 18.99990081787109 L 0.649800181388855 18.99990081787109 C 0.2907001972198486 18.99990081787109 2.052307195299363e-07 18.70919990539551 2.052307195299363e-07 18.35009956359863 L 2.052307195299363e-07 13.5 C 2.052307195299363e-07 11.0258903503418 1.381800174713135 8.874990463256836 3.415940284729004 7.776790618896484 C 2.544120311737061 6.956050395965576 1.999800205230713 5.791590213775635 1.999800205230713 4.500000476837158 C 1.999800205230713 2.015100479125977 4.014900207519531 4.089355343239731e-07 6.499800205230713 4.089355343239731e-07 C 8.985600471496582 4.089355343239731e-07 10.99979972839355 2.015100479125977 10.99979972839355 4.500000476837158 C 10.99979972839355 5.791590213775635 10.45559024810791 6.956170558929443 9.583869934082031 7.776910305023193 C 11.61772060394287 8.875200271606445 12.99960041046143 11.02611064910889 12.99960041046143 13.5 L 12.99960041046143 18.35009956359863 C 12.99960041046143 18.70919990539551 12.70890045166016 18.99990081787109 12.34980010986328 18.99990081787109 Z" stroke="none" fill="#a6a6a6"/>
  </g>
</svg>
