<svg xmlns="http://www.w3.org/2000/svg" width="29.634" height="24" viewBox="0 0 29.634 24">
  <g id="smartlink-tw" transform="translate(0 -0.063)" style="isolation: isolate">
    <g id="Icons" transform="translate(0 0.063)">
      <path id="Path_20" data-name="Path 20" d="M29.634,2.829a12.15,12.15,0,0,1-3.492,1.018A6.094,6.094,0,0,0,28.81.433a12.176,12.176,0,0,1-3.865,1.482,6.081,6.081,0,0,0-10.308,5.54A17.265,17.265,0,0,1,2.062,1.09,6.081,6.081,0,0,0,3.943,9.207a6.056,6.056,0,0,1-2.757-.76v.077A6.081,6.081,0,0,0,6.069,14.49a6.094,6.094,0,0,1-2.744.1,6.081,6.081,0,0,0,5.695,4.226A12.2,12.2,0,0,1,1.469,21.4,12.381,12.381,0,0,1,0,21.331a17.214,17.214,0,0,0,9.315,2.732,17.175,17.175,0,0,0,17.3-17.291V5.986a12.356,12.356,0,0,0,3.015-3.157Z" transform="translate(0 -0.063)" fill="#fff" style="mix-blend-mode: multiply;isolation: isolate"/>
    </g>
  </g>
</svg>
