<svg xmlns="http://www.w3.org/2000/svg" width="34.292" height="24" viewBox="0 0 34.292 24">
  <path id="smartlink-yt" d="M33.575,3.81a4.292,4.292,0,0,0-3.1-3.1C27.861,0,17.143,0,17.143,0S6.426,0,3.81.711a4.292,4.292,0,0,0-3.1,3.1A44.622,44.622,0,0,0,0,12a44.623,44.623,0,0,0,.711,8.254,4.292,4.292,0,0,0,3.1,3.035c2.679.711,13.4.711,13.4.711s10.717,0,13.4-.711a4.292,4.292,0,0,0,3.035-3.035A44.622,44.622,0,0,0,34.286,12a44.622,44.622,0,0,0-.711-8.19ZM13.842,17.143V6.857L22.73,12Z" transform="translate(0.001)" fill="#fff"/>
</svg>
